{"accessors" : [{"bufferView" : 0, "byteOffset" : 0, "componentType" : 5123, "count" : 564, "type" : "SCALAR", "max" : [563], "min" : [0]}, {"bufferView" : 1, "byteOffset" : 0, "componentType" : 5126, "count" : 564, "type" : "VEC3", "max" : [50, 100, 50], "min" : [-50, 0, -50], "name" : "POSITION"}, {"bufferView" : 1, "byteOffset" : 12, "componentType" : 5126, "count" : 564, "type" : "VEC3", "max" : [0.999992311000824, 0.999992311000824, 0.999992311000824], "min" : [-0.999992311000824, -0.999992311000824, -0.999992311000824], "name" : "NORMAL"}, {"bufferView" : 1, "byteOffset" : 24, "componentType" : 5126, "count" : 564, "type" : "VEC4", "max" : [0.9999982714653015, 0.9999983310699463, 0.4999629855155945, 1], "min" : [-0.9999982714653015, -0.7071104049682617, -0.4999629855155945, 1], "name" : "TANGENT"}, {"bufferView" : 1, "byteOffset" : 40, "componentType" : 5126, "count" : 564, "type" : "VEC2", "max" : [1, 1], "min" : [0, 0], "name" : "TEXCOORD_0"}], "asset" : {"generator" : "Aspose.3D 24.6.0", "version" : "2.0"}, "buffers" : [{"uri" : "data:application/octet-stream;base64,", "byteLength" : 28208}], "bufferViews" : [{"buffer" : 0, "byteOffset" : 0, "byteLength" : 1128, "target" : 34963}, {"buffer" : 0, "byteOffset" : 1132, "byteLength" : 27072, "byteStride" : 48, "target" : 34962}], "materials" : [{"name" : "rep_Agent", "pbrMetallicRoughness" : {"baseColorFactor" : [0, 0, 0, 1], "metallicFactor" : 1, "roughnessFactor" : 1}, "emissiveFactor" : [0, 0, 0], "alphaMode" : "OPAQUE", "doubleSided" : false}], "meshes" : [{"primitives" : [{"attributes" : {"POSITION" : 1, "NORMAL" : 2, "TANGENT" : 3, "TEXCOORD_0" : 4}, "indices" : 0, "material" : 0, "mode" : 4}], "name" : ""}], "nodes" : [{"matrix" : [0.01, 0, 0, 0, 0, 0.01, 0, 0, 0, 0, 0.01, 0, 0, 0, 0, 1], "mesh" : 0, "name" : "AgentCube"}], "scene" : 0, "scenes" : [{"nodes" : [0]}]}