{"accessors" : [{"bufferView" : 0, "byteOffset" : 0, "componentType" : 5123, "count" : 6498, "type" : "SCALAR", "max" : [6497], "min" : [0]}, {"bufferView" : 1, "byteOffset" : 0, "componentType" : 5126, "count" : 6498, "type" : "VEC3", "max" : [0.03214959800243378, 0.05634487792849541, 0.03214959800243378], "min" : [-0.03214959800243378, -0.0003817621909547597, -0.06065205857157707], "name" : "POSITION"}, {"bufferView" : 1, "byteOffset" : 12, "componentType" : 5126, "count" : 6498, "type" : "VEC3", "max" : [0.999945342540741, 1.0000044107437134, 0.999945342540741], "min" : [-0.999945342540741, -1.0000044107437134, -0.9999117255210876], "name" : "NORMAL"}, {"bufferView" : 1, "byteOffset" : 24, "componentType" : 5126, "count" : 6498, "type" : "VEC2", "max" : [0.9917982816696167, 0.990707516670227], "min" : [0.008197188377380371, 0.009121417999267578], "name" : "TEXCOORD_0"}], "asset" : {"generator" : "Aspose.3D 24.6.0", "version" : "2.0"}, "buffers" : [{"uri" : "data:application/octet-stream;base64,", "byteLength" : 220940}], "bufferViews" : [{"buffer" : 0, "byteOffset" : 0, "byteLength" : 12996, "target" : 34963}, {"buffer" : 0, "byteOffset" : 13000, "byteLength" : 207936, "byteStride" : 32, "target" : 34962}], "meshes" : [{"primitives" : [{"attributes" : {"POSITION" : 1, "NORMAL" : 2, "TEXCOORD_0" : 3}, "indices" : 0, "mode" : 4}], "name" : "Cube.003"}], "nodes" : [{"mesh" : 0, "name" : "CoffeeCup"}], "scene" : 0, "scenes" : [{"nodes" : [0]}]}