{"accessors" : [{"bufferView" : 0, "byteOffset" : 0, "componentType" : 5123, "count" : 66, "type" : "SCALAR", "max" : [65], "min" : [0]}, {"bufferView" : 1, "byteOffset" : 0, "componentType" : 5126, "count" : 66, "type" : "VEC3", "max" : [1, 1, 1.5402562618255615], "min" : [-1, -1, 0], "name" : "POSITION"}, {"bufferView" : 1, "byteOffset" : 12, "componentType" : 5126, "count" : 66, "type" : "VEC3", "max" : [1.0000044107437134, 0, 1.0000044107437134], "min" : [0, 0, 0], "name" : "NORMAL"}, {"bufferView" : 1, "byteOffset" : 24, "componentType" : 5126, "count" : 66, "type" : "VEC2", "max" : [1, 1], "min" : [0, 0], "name" : "TEXCOORD_0"}, {"bufferView" : 0, "byteOffset" : 132, "componentType" : 5123, "count" : 1794, "type" : "SCALAR", "max" : [1793], "min" : [0]}, {"bufferView" : 2, "byteOffset" : 0, "componentType" : 5126, "count" : 1794, "type" : "VEC3", "max" : [1, 1, 8.536497116088867], "min" : [-1.0000003576278687, -1, -1.5293166637420654], "name" : "POSITION"}, {"bufferView" : 2, "byteOffset" : 12, "componentType" : 5126, "count" : 1794, "type" : "VEC3", "max" : [1.0000044107437134, 1.0000044107437134, 1.0000044107437134], "min" : [-1.0000044107437134, -1.0000044107437134, -1.0000044107437134], "name" : "NORMAL"}, {"bufferView" : 2, "byteOffset" : 24, "componentType" : 5126, "count" : 1794, "type" : "VEC2", "max" : [1, 0.9900000095367432], "min" : [0, 0], "name" : "TEXCOORD_0"}, {"bufferView" : 0, "byteOffset" : 3720, "componentType" : 5123, "count" : 1062, "type" : "SCALAR", "max" : [1061], "min" : [0]}, {"bufferView" : 3, "byteOffset" : 0, "componentType" : 5126, "count" : 1062, "type" : "VEC3", "max" : [0.9882432222366333, 0.988243818283081, 9.762258529663086], "min" : [-0.9882433414459229, -0.9882425665855408, 8.66136360168457], "name" : "POSITION"}, {"bufferView" : 3, "byteOffset" : 12, "componentType" : 5126, "count" : 1062, "type" : "VEC3", "max" : [1.0000044107437134, 0.9917434453964233, 1.0000044107437134], "min" : [-0.9917434453964233, -0.9917434453964233, -0.7469291090965271], "name" : "NORMAL"}, {"bufferView" : 3, "byteOffset" : 24, "componentType" : 5126, "count" : 1062, "type" : "VEC2", "max" : [1, 0.5282688140869141], "min" : [0, 0], "name" : "TEXCOORD_0"}, {"bufferView" : 0, "byteOffset" : 5844, "componentType" : 5123, "count" : 1566, "type" : "SCALAR", "max" : [1565], "min" : [0]}, {"bufferView" : 4, "byteOffset" : 0, "componentType" : 5126, "count" : 1566, "type" : "VEC3", "max" : [0.9999995827674866, 1, 9.762258529663086], "min" : [-1.0000003576278687, -1, 7.1970720291137695], "name" : "POSITION"}, {"bufferView" : 4, "byteOffset" : 12, "componentType" : 5126, "count" : 1566, "type" : "VEC3", "max" : [0.9995148181915283, 0.9831075072288513, 0.5976691842079163], "min" : [-0.9995148181915283, -0.9995148181915283, -1.0000044107437134], "name" : "NORMAL"}, {"bufferView" : 4, "byteOffset" : 24, "componentType" : 5126, "count" : 1566, "type" : "VEC2", "max" : [1, 5.960464477539063E-08], "min" : [0, 0], "name" : "TEXCOORD_0"}, {"bufferView" : 0, "byteOffset" : 8976, "componentType" : 5123, "count" : 48, "type" : "SCALAR", "max" : [47], "min" : [0]}, {"bufferView" : 5, "byteOffset" : 0, "componentType" : 5126, "count" : 48, "type" : "VEC3", "max" : [-0.7071058750152588, 0.707107663154602, 1], "min" : [-1, -0.707106351852417, -1], "name" : "POSITION"}, {"bufferView" : 5, "byteOffset" : 12, "componentType" : 5126, "count" : 48, "type" : "VEC3", "max" : [-0.7730129957199097, 0.6343971490859985, 0], "min" : [-0.9951891899108887, -0.6343954801559448, 0], "name" : "NORMAL"}, {"bufferView" : 5, "byteOffset" : 24, "componentType" : 5126, "count" : 48, "type" : "VEC2", "max" : [0.375, 0.5], "min" : [0.125, 0], "name" : "TEXCOORD_0"}, {"bufferView" : 0, "byteOffset" : 9072, "componentType" : 5123, "count" : 1794, "type" : "SCALAR", "max" : [1793], "min" : [0]}, {"bufferView" : 6, "byteOffset" : 0, "componentType" : 5126, "count" : 1794, "type" : "VEC3", "max" : [1, 1, 8.536497116088867], "min" : [-1.0000003576278687, -1, -1.5293166637420654], "name" : "POSITION"}, {"bufferView" : 6, "byteOffset" : 12, "componentType" : 5126, "count" : 1794, "type" : "VEC3", "max" : [1.0000044107437134, 1.0000044107437134, 1.0000044107437134], "min" : [-1.0000044107437134, -1.0000044107437134, -1.0000044107437134], "name" : "NORMAL"}, {"bufferView" : 6, "byteOffset" : 24, "componentType" : 5126, "count" : 1794, "type" : "VEC2", "max" : [1, 0.9900000095367432], "min" : [0, 0], "name" : "TEXCOORD_0"}, {"bufferView" : 0, "byteOffset" : 12660, "componentType" : 5123, "count" : 1062, "type" : "SCALAR", "max" : [1061], "min" : [0]}, {"bufferView" : 7, "byteOffset" : 0, "componentType" : 5126, "count" : 1062, "type" : "VEC3", "max" : [0.9882432222366333, 0.988243818283081, 9.762258529663086], "min" : [-0.9882433414459229, -0.9882425665855408, 8.66136360168457], "name" : "POSITION"}, {"bufferView" : 7, "byteOffset" : 12, "componentType" : 5126, "count" : 1062, "type" : "VEC3", "max" : [1.0000044107437134, 0.9917434453964233, 1.0000044107437134], "min" : [-0.9917434453964233, -0.9917434453964233, -0.7469291090965271], "name" : "NORMAL"}, {"bufferView" : 7, "byteOffset" : 24, "componentType" : 5126, "count" : 1062, "type" : "VEC2", "max" : [1, 0.5282688140869141], "min" : [0, 0], "name" : "TEXCOORD_0"}, {"bufferView" : 0, "byteOffset" : 14784, "componentType" : 5123, "count" : 1566, "type" : "SCALAR", "max" : [1565], "min" : [0]}, {"bufferView" : 8, "byteOffset" : 0, "componentType" : 5126, "count" : 1566, "type" : "VEC3", "max" : [0.9999995827674866, 1, 9.762258529663086], "min" : [-1.0000003576278687, -1, 7.1970720291137695], "name" : "POSITION"}, {"bufferView" : 8, "byteOffset" : 12, "componentType" : 5126, "count" : 1566, "type" : "VEC3", "max" : [0.9995148181915283, 0.9831075072288513, 0.5976691842079163], "min" : [-0.9995148181915283, -0.9995148181915283, -1.0000044107437134], "name" : "NORMAL"}, {"bufferView" : 8, "byteOffset" : 24, "componentType" : 5126, "count" : 1566, "type" : "VEC2", "max" : [1, 5.960464477539063E-08], "min" : [0, 0], "name" : "TEXCOORD_0"}, {"bufferView" : 0, "byteOffset" : 17916, "componentType" : 5123, "count" : 48, "type" : "SCALAR", "max" : [47], "min" : [0]}, {"bufferView" : 9, "byteOffset" : 0, "componentType" : 5126, "count" : 48, "type" : "VEC3", "max" : [-0.7071058750152588, 0.707107663154602, 1], "min" : [-1, -0.707106351852417, -1], "name" : "POSITION"}, {"bufferView" : 9, "byteOffset" : 12, "componentType" : 5126, "count" : 48, "type" : "VEC3", "max" : [-0.7730129957199097, 0.6343971490859985, 0], "min" : [-0.9951891899108887, -0.6343954801559448, 0], "name" : "NORMAL"}, {"bufferView" : 9, "byteOffset" : 24, "componentType" : 5126, "count" : 48, "type" : "VEC2", "max" : [0.375, 0.5], "min" : [0.125, 0], "name" : "TEXCOORD_0"}], "asset" : {"generator" : "Aspose.3D 24.6.0", "version" : "2.0"}, "buffers" : [{"uri" : "data:application/octet-stream;base64,", "byteLength" : 306244}], "bufferViews" : [{"buffer" : 0, "byteOffset" : 0, "byteLength" : 18012, "target" : 34963}, {"buffer" : 0, "byteOffset" : 18016, "byteLength" : 2112, "byteStride" : 32, "target" : 34962}, {"buffer" : 0, "byteOffset" : 20132, "byteLength" : 57408, "byteStride" : 32, "target" : 34962}, {"buffer" : 0, "byteOffset" : 77544, "byteLength" : 33984, "byteStride" : 32, "target" : 34962}, {"buffer" : 0, "byteOffset" : 111532, "byteLength" : 50112, "byteStride" : 32, "target" : 34962}, {"buffer" : 0, "byteOffset" : 161648, "byteLength" : 1536, "byteStride" : 32, "target" : 34962}, {"buffer" : 0, "byteOffset" : 163188, "byteLength" : 57408, "byteStride" : 32, "target" : 34962}, {"buffer" : 0, "byteOffset" : 220600, "byteLength" : 33984, "byteStride" : 32, "target" : 34962}, {"buffer" : 0, "byteOffset" : 254588, "byteLength" : 50112, "byteStride" : 32, "target" : 34962}, {"buffer" : 0, "byteOffset" : 304704, "byteLength" : 1536, "byteStride" : 32, "target" : 34962}], "cameras" : [{"perspective" : {"aspectRatio" : 1.5, "yfov" : 0.6911112070083618, "zfar" : 10000, "znear" : 10.000000149011612}, "type" : "perspective", "name" : "Camera"}], "materials" : [{"name" : "Material.003", "pbrMetallicRoughness" : {"baseColorFactor" : [0.29795321822166443, 0.22724676132202148, 0.3263760805130005, 1], "metallicFactor" : 1, "roughnessFactor" : 1}, "emissiveFactor" : [0, 0, 0], "alphaMode" : "OPAQUE", "doubleSided" : false}, {"name" : "Material", "pbrMetallicRoughness" : {"baseColorFactor" : [0.800000011920929, 0.800000011920929, 0.800000011920929, 1], "metallicFactor" : 1, "roughnessFactor" : 1}, "emissiveFactor" : [0, 0, 0], "alphaMode" : "OPAQUE", "doubleSided" : false}, {"name" : "blue", "pbrMetallicRoughness" : {"baseColorFactor" : [0.11032571643590927, 0.10496526211500168, 0.8000000715255737, 1], "metallicFactor" : 1, "roughnessFactor" : 1}, "emissiveFactor" : [0, 0, 0], "alphaMode" : "OPAQUE", "doubleSided" : false}, {"name" : "glass", "pbrMetallicRoughness" : {"baseColorFactor" : [0.800000011920929, 0.800000011920929, 0.800000011920929, 1], "metallicFactor" : 1, "roughnessFactor" : 1}, "emissiveFactor" : [0, 0, 0], "alphaMode" : "OPAQUE", "doubleSided" : false}, {"name" : "Material.001", "pbrMetallicRoughness" : {"baseColorFactor" : [0.800000011920929, 0.800000011920929, 0.800000011920929, 1], "metallicFactor" : 1, "roughnessFactor" : 1}, "emissiveFactor" : [0, 0, 0], "alphaMode" : "OPAQUE", "doubleSided" : false}], "meshes" : [{"primitives" : [{"attributes" : {"POSITION" : 1, "NORMAL" : 2, "TEXCOORD_0" : 3}, "indices" : 0, "material" : 0, "mode" : 4}], "name" : "Plane"}, {"primitives" : [{"attributes" : {"POSITION" : 5, "NORMAL" : 6, "TEXCOORD_0" : 7}, "indices" : 4, "material" : 1, "mode" : 4}], "name" : "Cylinder"}, {"primitives" : [{"attributes" : {"POSITION" : 9, "NORMAL" : 10, "TEXCOORD_0" : 11}, "indices" : 8, "material" : 2, "mode" : 4}], "name" : "Cylinder.001"}, {"primitives" : [{"attributes" : {"POSITION" : 13, "NORMAL" : 14, "TEXCOORD_0" : 15}, "indices" : 12, "material" : 3, "mode" : 4}], "name" : "Cylinder.004"}, {"primitives" : [{"attributes" : {"POSITION" : 17, "NORMAL" : 18, "TEXCOORD_0" : 19}, "indices" : 16, "material" : 4, "mode" : 4}], "name" : "Cylinder.003"}, {"primitives" : [{"attributes" : {"POSITION" : 21, "NORMAL" : 22, "TEXCOORD_0" : 23}, "indices" : 20, "material" : 1, "mode" : 4}], "name" : "Cylinder.005"}, {"primitives" : [{"attributes" : {"POSITION" : 25, "NORMAL" : 26, "TEXCOORD_0" : 27}, "indices" : 24, "material" : 2, "mode" : 4}], "name" : "Cylinder.006"}, {"primitives" : [{"attributes" : {"POSITION" : 29, "NORMAL" : 30, "TEXCOORD_0" : 31}, "indices" : 28, "material" : 3, "mode" : 4}], "name" : "Cylinder.007"}, {"primitives" : [{"attributes" : {"POSITION" : 33, "NORMAL" : 34, "TEXCOORD_0" : 35}, "indices" : 32, "material" : 4, "mode" : 4}], "name" : "Cylinder.008"}], "nodes" : [{"camera" : 0, "matrix" : [-93.03662557244527, -30.302928448516408, -20.637800985975137, 0, -29.58398631375911, 95.29813173751921, -6.561658860738631, 0, 21.655811908739658, 0.0007382334888256237, -97.6269727587018, 0, 769.7549438476562, 540.1807861328125, 45.823848724365234, 1], "name" : "Camera"}, {"matrix" : [3711.26220703125, 0, 0, 0, 0, -0.0006046413607675727, -3711.2622070312004, 0, 0, 3711.2622070312004, -0.0006046413607675727, 0, 2384.242919921875, 0, 0, 1], "mesh" : 0, "name" : "Plane"}, {"matrix" : [-48.2153319361274, 0, -5.325684676368497, 0, -5.325684676368396, 9.444966874777576E-06, 48.21533193612648, 0, 1.0369491737298334E-06, 48.508571624754936, -9.387872480345392E-06, 0, 13.52520751953125, 81.38033294677734, 24.4398250579834, 1], "mesh" : 1, "name" : "Cylinder"}, {"matrix" : [-48.2153319361274, 0, -5.325684676368497, 0, -5.325684676368396, 9.444966874777576E-06, 48.21533193612648, 0, 1.0369491737298334E-06, 48.508571624754936, -9.387872480345392E-06, 0, 13.52520751953125, 81.38033294677734, 24.4398250579834, 1], "mesh" : 2, "name" : "Cylinder.001"}, {"matrix" : [-48.2153319361274, 0, -5.325684676368497, 0, -5.325684676368396, 9.444966874777576E-06, 48.21533193612648, 0, 1.0369491737298334E-06, 48.508571624754936, -9.387872480345392E-06, 0, 13.52520751953125, 81.38033294677734, 24.4398250579834, 1], "mesh" : 3, "name" : "Cylinder.002"}, {"matrix" : [-46.07803907513417, 0, -5.089607325417511, 0, -5.4183748747372915, 9.609350593756553E-06, 49.05448951926548, 0, 3.0149566625442336E-06, 141.0399322509739, -2.729548313339736E-05, 0, 16.847402572631836, 233.25830078125, 24.80665397644043, 1], "mesh" : 4, "name" : "Cylinder.003"}, {"matrix" : [-47.54472781218394, -22.64175615154645, -20.497947164801722, 0, 13.578608476147021, -49.64149955805557, 23.337921601506807, 0, -27.35756064529911, 14.71013634195696, 47.20689572939635, 0, 17.0987548828125, 43.3780517578125, -352.3058166503906, 1], "mesh" : 5, "name" : "Cylinder.004"}, {"matrix" : [-47.54472781218394, -22.64175615154645, -20.497947164801722, 0, 13.578608476147021, -49.64149955805557, 23.337921601506807, 0, -27.35756064529911, 14.71013634195696, 47.20689572939635, 0, 17.0987548828125, 43.3780517578125, -352.3058166503906, 1], "mesh" : 6, "name" : "Cylinder.005"}, {"matrix" : [-47.54472781218394, -22.64175615154645, -20.497947164801722, 0, 13.578608476147021, -49.64149955805557, 23.337921601506807, 0, -27.35756064529911, 14.71013634195696, 47.20689572939635, 0, 17.0987548828125, 43.3780517578125, -352.3058166503906, 1], "mesh" : 7, "name" : "Cylinder.006"}, {"matrix" : [-45.437156711415, -21.638101671452983, -19.589309308662127, 0, 13.814942643038211, -50.50546983461079, 23.74411318367404, 0, -79.54283083170581, 42.77011903145978, 137.25526731450373, 0, -65.28062438964844, 90.99520874023438, -203.09112548828125, 1], "mesh" : 8, "name" : "Cylinder.007"}], "scene" : 0, "scenes" : [{"nodes" : [0, 1, 2, 3, 4, 5, 6, 7, 8, 9]}]}